<svg xmlns="http://www.w3.org/2000/svg" xmlns:xlink="http://www.w3.org/1999/xlink" width="500" zoomAndPan="magnify" viewBox="0 0 375 374.999991" height="500" preserveAspectRatio="xMidYMid meet" version="1.0"><defs><clipPath id="c788185ba6"><path d="M 51.089844 46.347656 L 332.339844 46.347656 L 332.339844 223.347656 L 51.089844 223.347656 Z M 51.089844 46.347656 " clip-rule="nonzero"/></clipPath><clipPath id="42732b576b"><path d="M 116.285156 186.523438 L 267.261719 186.523438 L 267.261719 337.5 L 116.285156 337.5 Z M 116.285156 186.523438 " clip-rule="nonzero"/></clipPath><clipPath id="95caa8007e"><path d="M 191.773438 186.523438 C 150.082031 186.523438 116.285156 220.320312 116.285156 262.011719 C 116.285156 303.703125 150.082031 337.5 191.773438 337.5 C 233.464844 337.5 267.261719 303.703125 267.261719 262.011719 C 267.261719 220.320312 233.464844 186.523438 191.773438 186.523438 Z M 191.773438 186.523438 " clip-rule="nonzero"/></clipPath><clipPath id="1f7c0d0328"><path d="M 192.902344 235.691406 L 242.332031 235.691406 L 242.332031 298.355469 L 192.902344 298.355469 Z M 192.902344 235.691406 " clip-rule="nonzero"/></clipPath><clipPath id="16219a1652"><path d="M 141.171875 235.691406 L 190.636719 235.691406 L 190.636719 298.355469 L 141.171875 298.355469 Z M 141.171875 235.691406 " clip-rule="nonzero"/></clipPath><clipPath id="0f8a5fe37b"><path d="M 193 223.355469 L 229 223.355469 L 229 295 L 193 295 Z M 193 223.355469 " clip-rule="nonzero"/></clipPath><clipPath id="933b35f692"><path d="M 155 223.355469 L 191 223.355469 L 191 295 L 155 295 Z M 155 223.355469 " clip-rule="nonzero"/></clipPath></defs><g clip-path="url(#c788185ba6)"><path fill="#f39d0f" d="M 114.65625 154.738281 C 135.070312 137.746094 162.460938 128.390625 191.769531 128.390625 C 219.066406 128.390625 244.632812 136.613281 264.523438 151.457031 C 278.78125 145.464844 292.679688 141.183594 304.171875 138.1875 L 309.257812 141.785156 L 309.257812 163.855469 C 306.96875 164.652344 305.308594 166.769531 305.308594 169.324219 C 305.308594 171.28125 306.273438 172.992188 307.738281 174.058594 C 305.851562 178.742188 303.863281 185.371094 303.863281 192.75 C 303.863281 206.917969 307.136719 223.324219 311.15625 223.324219 C 315.171875 223.324219 318.441406 206.917969 318.441406 192.75 C 318.441406 185.371094 316.457031 178.742188 314.558594 174.058594 C 316.035156 172.992188 317 171.28125 317 169.324219 C 317 166.710938 315.253906 164.574219 312.890625 163.824219 L 312.890625 140.972656 L 308.527344 137.078125 C 322.765625 133.582031 332.339844 132.238281 332.339844 132.238281 C 248.324219 120.496094 192.550781 46.335938 192.550781 46.335938 C 132.113281 113.523438 51.207031 135.5625 51.207031 135.5625 C 76.464844 140.304688 97.21875 147.199219 114.351562 155.003906 L 114.65625 154.738281 " fill-opacity="1" fill-rule="nonzero"/></g><path fill="#f39d0f" d="M 118.546875 159.394531 L 118.546875 213.941406 C 128.84375 196.347656 145.402344 182.34375 166.367188 175.859375 C 174.476562 173.351562 182.855469 172.078125 191.28125 172.078125 C 222.457031 172.078125 250.191406 188.878906 264.867188 215.226562 L 265 215.226562 L 265 159.394531 C 246.652344 144.128906 220.734375 134.457031 191.769531 134.457031 C 162.792969 134.457031 136.886719 144.128906 118.546875 159.394531 " fill-opacity="1" fill-rule="nonzero"/><g clip-path="url(#42732b576b)"><g clip-path="url(#95caa8007e)"><path fill="#f39d0f" d="M 116.285156 186.523438 L 267.261719 186.523438 L 267.261719 337.5 L 116.285156 337.5 Z M 116.285156 186.523438 " fill-opacity="1" fill-rule="nonzero"/></g></g><g clip-path="url(#1f7c0d0328)"><path fill="#ffffff" d="M 239.316406 235.691406 L 235.621094 235.691406 L 235.621094 282.984375 C 235.621094 285.644531 233.460938 287.8125 230.800781 287.8125 C 230.5 287.8125 230.199219 287.785156 229.898438 287.726562 C 228.59375 287.480469 227.230469 287.355469 225.847656 287.355469 C 218.941406 287.355469 202.988281 290.761719 192.945312 298.554688 C 199.039062 297.894531 222.539062 293.394531 236.15625 296.980469 C 239.292969 297.808594 242.371094 295.472656 242.371094 292.226562 L 242.371094 238.742188 C 242.371094 237.058594 241.003906 235.691406 239.316406 235.691406 " fill-opacity="1" fill-rule="nonzero"/></g><g clip-path="url(#16219a1652)"><path fill="#ffffff" d="M 157.695312 287.355469 C 156.308594 287.355469 154.945312 287.480469 153.640625 287.726562 C 153.34375 287.785156 153.039062 287.8125 152.738281 287.8125 C 150.082031 287.8125 147.917969 285.644531 147.917969 282.984375 L 147.917969 235.691406 L 144.222656 235.691406 C 142.539062 235.691406 141.171875 237.058594 141.171875 238.742188 L 141.171875 292.226562 C 141.171875 295.472656 144.25 297.808594 147.386719 296.980469 C 161 293.394531 184.5 297.894531 190.59375 298.554688 C 180.550781 290.761719 164.597656 287.355469 157.695312 287.355469 " fill-opacity="1" fill-rule="nonzero"/></g><g clip-path="url(#0f8a5fe37b)"><path fill="#ffffff" d="M 226.011719 282.289062 C 226.121094 282.3125 226.226562 282.320312 226.332031 282.320312 C 227.238281 282.320312 228.011719 281.578125 228.011719 280.628906 L 228.011719 229.648438 C 228.011719 226.191406 225.222656 223.359375 221.765625 223.355469 C 221.746094 223.355469 221.726562 223.355469 221.707031 223.355469 C 206.015625 223.355469 197.097656 234.40625 194.222656 238.710938 C 193.539062 239.730469 193.183594 240.929688 193.183594 242.15625 L 193.183594 294.371094 C 193.183594 294.371094 206.523438 281.863281 221.375 281.863281 C 222.910156 281.863281 224.460938 281.996094 226.011719 282.289062 " fill-opacity="1" fill-rule="nonzero"/></g><g clip-path="url(#933b35f692)"><path fill="#ffffff" d="M 157.210938 282.320312 C 157.316406 282.320312 157.421875 282.3125 157.527344 282.289062 C 159.082031 281.996094 160.632812 281.863281 162.164062 281.863281 C 177.015625 281.863281 190.359375 294.371094 190.359375 294.371094 L 190.359375 242.15625 C 190.359375 240.929688 190 239.730469 189.320312 238.710938 C 186.441406 234.40625 177.523438 223.355469 161.835938 223.355469 C 161.816406 223.355469 161.796875 223.355469 161.773438 223.355469 C 158.316406 223.359375 155.527344 226.191406 155.527344 229.648438 L 155.527344 280.628906 C 155.527344 281.578125 156.300781 282.320312 157.210938 282.320312 " fill-opacity="1" fill-rule="nonzero"/></g></svg>